<svg xmlns="http://www.w3.org/2000/svg" viewBox="0 0 520 220" width="520" height="220">
  <rect width="520" height="220" rx="14" fill="#f8fafc"/>
  <rect x="1" y="1" width="518" height="218" rx="13" fill="none" stroke="#e2e8f0" stroke-width="1.5"/>
  <text x="30" y="38" font-family="'Inter', system-ui, sans-serif" font-size="13" font-weight="700" fill="#0f172a">Before You Lock — Verification Checklist</text>
  <!-- Items -->
  <g transform="translate(30,55)">
    <rect x="0" y="0" width="14" height="14" rx="3" fill="#22c55e"/>
    <polyline points="2,7 6,11 12,3" fill="none" stroke="white" stroke-width="2" stroke-linecap="round"/>
    <text x="22" y="11" font-family="'Inter', system-ui, sans-serif" font-size="12" fill="#1e293b">Boot partition is untouched (stock kernel)</text>
  </g>
  <g transform="translate(30,80)">
    <rect x="0" y="0" width="14" height="14" rx="3" fill="#22c55e"/>
    <polyline points="2,7 6,11 12,3" fill="none" stroke="white" stroke-width="2" stroke-linecap="round"/>
    <text x="22" y="11" font-family="'Inter', system-ui, sans-serif" font-size="12" fill="#1e293b">System partition has official, unmodified ROM</text>
  </g>
  <g transform="translate(30,105)">
    <rect x="0" y="0" width="14" height="14" rx="3" fill="#22c55e"/>
    <polyline points="2,7 6,11 12,3" fill="none" stroke="white" stroke-width="2" stroke-linecap="round"/>
    <text x="22" y="11" font-family="'Inter', system-ui, sans-serif" font-size="12" fill="#1e293b">No custom recovery (TWRP/OrangeFox) installed</text>
  </g>
  <g transform="translate(30,130)">
    <rect x="0" y="0" width="14" height="14" rx="3" fill="#22c55e"/>
    <polyline points="2,7 6,11 12,3" fill="none" stroke="white" stroke-width="2" stroke-linecap="round"/>
    <text x="22" y="11" font-family="'Inter', system-ui, sans-serif" font-size="12" fill="#1e293b">Magisk / root is removed (unpatched boot)</text>
  </g>
  <g transform="translate(30,155)">
    <rect x="0" y="0" width="14" height="14" rx="3" fill="#22c55e"/>
    <polyline points="2,7 6,11 12,3" fill="none" stroke="white" stroke-width="2" stroke-linecap="round"/>
    <text x="22" y="11" font-family="'Inter', system-ui, sans-serif" font-size="12" fill="#1e293b">Full backup taken — locking wipes all data</text>
  </g>
  <!-- Right panel lock icon -->
  <g transform="translate(380, 80)">
    <rect x="0" y="20" width="80" height="60" rx="10" fill="#3b82f6" opacity="0.12"/>
    <rect x="10" y="20" width="60" height="50" rx="8" fill="#3b82f6" opacity="0.2"/>
    <rect x="18" y="22" width="44" height="42" rx="6" fill="#3b82f6" opacity="0.15"/>
    <path d="M40 10 C28 10 20 18 20 28 L20 40 L60 40 L60 28 C60 18 52 10 40 10 Z" fill="none" stroke="#3b82f6" stroke-width="5" stroke-linecap="round"/>
    <rect x="20" y="38" width="40" height="32" rx="6" fill="#3b82f6"/>
    <circle cx="40" cy="55" r="5" fill="white"/>
    <line x1="40" y1="58" x2="40" y2="65" stroke="white" stroke-width="3" stroke-linecap="round"/>
    <text x="40" y="90" font-family="'Inter', system-ui, sans-serif" font-size="10" fill="#64748b" text-anchor="middle">All Clear?</text>
    <text x="40" y="103" font-family="'Inter', system-ui, sans-serif" font-size="10" fill="#64748b" text-anchor="middle">Then Lock.</text>
  </g>
</svg>
